<svg xmlns="http://www.w3.org/2000/svg" xml:space="preserve" width="338.752" height="74.854" viewBox="0 0 89.625 19.805">
  <g aria-label="Hotstream" style="font-weight:700;font-size:12.7001px;-inkscape-font-specification:&quot;sans-serif, Bold&quot;;stroke:#fff;stroke-width:.479163;stroke-linecap:round;stroke-linejoin:round;stroke-dasharray:none;stroke-opacity:1">
    <path d="M36.125 19.23h-1.917v-3.912h-3.595v3.911h-1.917v-9.068h1.917v3.556h3.595v-3.556h1.917zM44.558 15.75q0 1.727-.914 2.666-.902.94-2.464.94-.965 0-1.727-.419-.75-.419-1.181-1.22-.432-.812-.432-1.968 0-1.727.901-2.654.902-.927 2.477-.927.978 0 1.727.419.75.42 1.181 1.22.432.787.432 1.942zm-4.788 0q0 1.028.33 1.561.343.521 1.105.521.75 0 1.08-.52.343-.534.343-1.563 0-1.028-.343-1.536-.33-.521-1.092-.521-.75 0-1.093.52-.33.509-.33 1.537zM49.041 17.845q.318 0 .61-.064.292-.063.584-.152v1.41q-.305.127-.762.216-.444.101-.978.101-.622 0-1.117-.203-.483-.203-.775-.699-.28-.508-.28-1.397v-3.34h-.901v-.8l1.041-.635.546-1.46h1.207v1.473h1.943v1.422h-1.943v3.34q0 .394.228.597.229.19.597.19zM56.47 17.172q0 1.054-.749 1.625-.736.56-2.21.56-.723 0-1.244-.102-.52-.09-1.041-.305v-1.562q.558.254 1.206.419.648.165 1.143.165.559 0 .788-.165.24-.165.24-.432 0-.178-.1-.318-.09-.14-.407-.317-.318-.178-.99-.457-.648-.28-1.068-.546-.419-.28-.622-.66-.203-.394-.203-.979 0-.965.75-1.447.749-.483 1.993-.483.648 0 1.232.127t1.207.419l-.572 1.359q-.508-.216-.965-.356-.457-.152-.927-.152-.838 0-.838.457 0 .165.101.305.114.127.42.28.317.152.926.406.597.241 1.03.508.43.254.66.647.24.381.24 1.004zM60.865 17.845q.318 0 .61-.064.292-.063.584-.152v1.41q-.305.127-.762.216-.445.101-.978.101-.622 0-1.118-.203-.482-.203-.774-.699-.28-.508-.28-1.397v-3.34h-.902v-.8l1.042-.635.546-1.46h1.207v1.473h1.943v1.422H60.04v3.34q0 .394.228.597.229.19.597.19zM67.33 12.168q.14 0 .33.013.19.012.304.038l-.14 1.778q-.088-.026-.266-.038-.165-.026-.292-.026-.483 0-.927.178-.445.165-.724.546-.267.381-.267 1.042v3.53h-1.892v-6.934h1.435l.28 1.168h.088q.305-.533.838-.914.534-.381 1.232-.381zM71.825 12.168q1.435 0 2.274.825.838.813.838 2.325v.914h-4.47q.025.8.47 1.257.456.457 1.257.457.673 0 1.219-.127.546-.14 1.13-.419v1.46q-.508.255-1.08.37-.558.126-1.358.126-1.042 0-1.842-.38-.8-.395-1.257-1.182-.457-.787-.457-1.981 0-1.22.406-2.02.42-.812 1.156-1.219.736-.406 1.714-.406zm.013 1.346q-.546 0-.915.356-.355.355-.419 1.105h2.655q-.013-.635-.33-1.042-.318-.419-.991-.419zM79.318 12.155q1.397 0 2.134.61.75.597.75 1.841v4.623H80.88l-.368-.94h-.05q-.445.56-.94.813-.496.254-1.36.254-.927 0-1.536-.533-.61-.546-.61-1.664 0-1.105.775-1.626.775-.533 2.324-.584l1.207-.038v-.305q0-.546-.293-.8-.279-.254-.787-.254t-.99.153q-.483.14-.966.355l-.622-1.282q.559-.293 1.232-.458.686-.165 1.422-.165zm.267 3.886q-.914.026-1.27.33-.356.305-.356.8 0 .433.254.623.254.178.66.178.61 0 1.03-.356.419-.368.419-1.028v-.572zM92.285 12.168q1.181 0 1.778.61.61.596.61 1.93v4.521H92.78v-4.051q0-1.499-1.041-1.499-.75 0-1.067.534-.317.533-.317 1.536v3.48h-1.893v-4.051q0-1.499-1.041-1.499-.787 0-1.092.597-.292.584-.292 1.69v3.263h-1.893v-6.934h1.448l.254.889h.102q.317-.533.863-.775.56-.241 1.156-.241.762 0 1.295.254.534.241.813.762h.165q.318-.533.877-.775.571-.241 1.168-.241z" style="stroke:#fff;stroke-width:.479163;stroke-linecap:round;stroke-linejoin:round;stroke-dasharray:none;stroke-opacity:1" transform="translate(-5.285 -4.856)"/>
  </g>
  <g style="fill:none">
    <path d="M48 24a24 24 0 0 1-24 24A24 24 0 0 1 0 24 24 24 0 0 1 24 0a24 24 0 0 1 24 24Z" style="fill:#3784ff;fill-opacity:1;stroke-width:.910675" transform="translate(-.002) scale(.41261)"/>
    <path d="M109.405 82.4c-9.333 6.296-27.884 19.104-27.884 19.104l19.355-40h40S119.853 75.353 109.405 82.4zM112.46 40.695c9.332-6.295 27.883-19.104 27.883-19.104l-19.354 40h-40s21.022-13.848 31.47-20.896zm2.52 17.457" style="fill:#fff" transform="matrix(.15126 0 -.04621 .19275 -3.987 -1.96)"/>
  </g>
</svg>
