<?xml version="1.0" encoding="UTF-8" standalone="no"?>
<svg
   width="338.75247"
   height="74.854347"
   viewBox="0 0 89.625459 19.805308"
   version="1.1"
   id="svg34"
   sodipodi:docname="hotstream-logo.svg"
   inkscape:version="1.2.2 (b0a8486541, 2022-12-01)"
   xml:space="preserve"
   xmlns:inkscape="http://www.inkscape.org/namespaces/inkscape"
   xmlns:sodipodi="http://sodipodi.sourceforge.net/DTD/sodipodi-0.dtd"
   xmlns="http://www.w3.org/2000/svg"
   xmlns:svg="http://www.w3.org/2000/svg"><sodipodi:namedview
     id="namedview36"
     pagecolor="#ffffff"
     bordercolor="#666666"
     borderopacity="1.0"
     inkscape:pageshadow="2"
     inkscape:pageopacity="0.0"
     inkscape:pagecheckerboard="0"
     showgrid="false"
     inkscape:zoom="1.8600052"
     inkscape:cx="190.32205"
     inkscape:cy="51.881575"
     inkscape:window-width="1850"
     inkscape:window-height="1136"
     inkscape:window-x="0"
     inkscape:window-y="0"
     inkscape:window-maximized="1"
     inkscape:current-layer="svg34"
     inkscape:showpageshadow="2"
     inkscape:deskcolor="#d1d1d1" /><defs
     id="defs8"><filter
       id="a"
       width="1"
       height="1"
       x="0"
       y="0"
       color-interpolation-filters="sRGB"><feGaussianBlur
         id="feGaussianBlur2" /></filter><filter
       id="b"
       width="1"
       height="1"
       x="0"
       y="0"
       color-interpolation-filters="sRGB"><feGaussianBlur
         id="feGaussianBlur5" /></filter></defs><g
     aria-label="Hotstream"
     id="text403"
     style="font-weight:bold;font-size:12.7001px;-inkscape-font-specification:'sans-serif, Bold';stroke:#ffffff;stroke-width:0.479163;stroke-linecap:round;stroke-linejoin:round;stroke-dasharray:none;stroke-opacity:1"
     inkscape:label="hotstream"
     transform="translate(-5.2854708,-4.8561117)"><path
       d="m 36.125237,19.2292 h -1.917715 v -3.91163 h -3.594128 v 3.91163 h -1.917715 v -9.067871 h 1.917715 v 3.556028 h 3.594128 v -3.556028 h 1.917715 z"
       id="path1063"
       style="stroke:#ffffff;stroke-width:0.479163;stroke-linecap:round;stroke-linejoin:round;stroke-dasharray:none;stroke-opacity:1" /><path
       d="m 44.558095,15.749373 q 0,1.727214 -0.914407,2.667021 -0.901707,0.939807 -2.463819,0.939807 -0.965208,0 -1.727214,-0.419103 -0.749306,-0.419103 -1.181109,-1.21921 -0.431803,-0.812806 -0.431803,-1.968515 0,-1.727214 0.901707,-2.654321 0.901707,-0.927107 2.476519,-0.927107 0.977908,0 1.727214,0.419103 0.749306,0.419103 1.181109,1.21921 0.431803,0.787406 0.431803,1.943115 z m -4.787937,0 q 0,1.028708 0.330202,1.562112 0.342903,0.520704 1.104909,0.520704 0.749306,0 1.079509,-0.520704 0.342902,-0.533404 0.342902,-1.562112 0,-1.028708 -0.342902,-1.536712 -0.330203,-0.520704 -1.092209,-0.520704 -0.749306,0 -1.092209,0.520704 -0.330202,0.508004 -0.330202,1.536712 z"
       id="path1065"
       style="stroke:#ffffff;stroke-width:0.479163;stroke-linecap:round;stroke-linejoin:round;stroke-dasharray:none;stroke-opacity:1" /><path
       d="m 49.041224,17.844889 q 0.317502,0 0.609604,-0.0635 0.292103,-0.0635 0.584205,-0.152401 v 1.409711 q -0.304802,0.127001 -0.762006,0.215902 -0.444503,0.1016 -0.977908,0.1016 -0.622305,0 -1.117608,-0.203201 -0.482604,-0.203202 -0.774707,-0.698506 -0.279402,-0.508004 -0.279402,-1.397011 v -3.340126 h -0.901707 v -0.800106 l 1.041408,-0.635005 0.546105,-1.460512 h 1.206509 v 1.473212 h 1.943115 v 1.422411 h -1.943115 v 3.340126 q 0,0.393703 0.228602,0.596905 0.228602,0.190501 0.596905,0.190501 z"
       id="path1067"
       style="stroke:#ffffff;stroke-width:0.479163;stroke-linecap:round;stroke-linejoin:round;stroke-dasharray:none;stroke-opacity:1" /><path
       d="m 56.470783,17.171784 q 0,1.054108 -0.749305,1.625613 -0.736606,0.558804 -2.209818,0.558804 -0.723906,0 -1.24461,-0.1016 -0.520704,-0.0889 -1.041408,-0.304803 v -1.562112 q 0.558805,0.254002 1.20651,0.419103 0.647705,0.165101 1.143009,0.165101 0.558804,0 0.787406,-0.165101 0.241302,-0.165101 0.241302,-0.431803 0,-0.177802 -0.101601,-0.317503 -0.0889,-0.139701 -0.406403,-0.317502 -0.317503,-0.177802 -0.990608,-0.457204 -0.647705,-0.279402 -1.066808,-0.546104 -0.419104,-0.279402 -0.622305,-0.660405 -0.203202,-0.393703 -0.203202,-0.977908 0,-0.965208 0.749306,-1.447811 0.749306,-0.482604 1.993916,-0.482604 0.647705,0 1.231909,0.127001 0.584205,0.127001 1.20651,0.419103 l -0.571505,1.358911 q -0.508004,-0.215902 -0.965207,-0.355603 -0.457204,-0.152401 -0.927108,-0.152401 -0.838206,0 -0.838206,0.457203 0,0.165102 0.101601,0.304803 0.114301,0.127001 0.419103,0.279402 0.317502,0.152401 0.927107,0.406403 0.596905,0.241302 1.028708,0.508004 0.431804,0.254002 0.660406,0.647705 0.241301,0.381003 0.241301,1.003308 z"
       id="path1069"
       style="stroke:#ffffff;stroke-width:0.479163;stroke-linecap:round;stroke-linejoin:round;stroke-dasharray:none;stroke-opacity:1" /><path
       d="m 60.865015,17.844889 q 0.317503,0 0.609605,-0.0635 0.292102,-0.0635 0.584205,-0.152401 v 1.409711 q -0.304803,0.127001 -0.762006,0.215902 -0.444504,0.1016 -0.977908,0.1016 -0.622305,0 -1.117609,-0.203201 -0.482604,-0.203202 -0.774706,-0.698506 -0.279402,-0.508004 -0.279402,-1.397011 v -3.340126 h -0.901707 v -0.800106 l 1.041408,-0.635005 0.546104,-1.460512 h 1.20651 v 1.473212 h 1.943115 v 1.422411 h -1.943115 v 3.340126 q 0,0.393703 0.228601,0.596905 0.228602,0.190501 0.596905,0.190501 z"
       id="path1071"
       style="stroke:#ffffff;stroke-width:0.479163;stroke-linecap:round;stroke-linejoin:round;stroke-dasharray:none;stroke-opacity:1" /><path
       d="m 67.329367,12.167945 q 0.139701,0 0.330203,0.0127 0.190501,0.0127 0.304802,0.0381 l -0.139701,1.778014 q -0.0889,-0.0254 -0.266702,-0.0381 -0.165101,-0.0254 -0.292102,-0.0254 -0.482604,0 -0.927107,0.177801 -0.444504,0.165101 -0.723906,0.546104 -0.266702,0.381003 -0.266702,1.041409 V 19.2292 h -1.892315 v -6.934254 h 1.435111 l 0.279402,1.168409 h 0.0889 q 0.304802,-0.533404 0.838207,-0.914407 0.533404,-0.381003 1.23191,-0.381003 z"
       id="path1073"
       style="stroke:#ffffff;stroke-width:0.479163;stroke-linecap:round;stroke-linejoin:round;stroke-dasharray:none;stroke-opacity:1" /><path
       d="m 71.8252,12.167945 q 1.435111,0 2.273318,0.825506 0.838207,0.812807 0.838207,2.324119 v 0.914407 h -4.470436 q 0.0254,0.800106 0.469904,1.25731 0.457204,0.457203 1.25731,0.457203 0.673105,0 1.21921,-0.127001 0.546104,-0.139701 1.130309,-0.419103 v 1.460511 q -0.508004,0.254002 -1.079509,0.368303 -0.558804,0.127001 -1.358911,0.127001 -1.041408,0 -1.841514,-0.381003 -0.800106,-0.393703 -1.25731,-1.181109 -0.457204,-0.787406 -0.457204,-1.981216 0,-1.219209 0.406404,-2.019315 0.419103,-0.812807 1.155709,-1.21921 0.736605,-0.406403 1.714513,-0.406403 z m 0.0127,1.34621 q -0.546104,0 -0.914407,0.355603 -0.355603,0.355603 -0.419103,1.104909 h 2.654321 q -0.0127,-0.635005 -0.330203,-1.041408 -0.317502,-0.419104 -0.990608,-0.419104 z"
       id="path1075"
       style="stroke:#ffffff;stroke-width:0.479163;stroke-linecap:round;stroke-linejoin:round;stroke-dasharray:none;stroke-opacity:1" /><path
       d="m 79.318256,12.155245 q 1.397011,0 2.133617,0.609604 0.749306,0.596905 0.749306,1.841515 V 19.2292 h -1.32081 l -0.368303,-0.939807 h -0.0508 q -0.444503,0.558804 -0.939807,0.812806 -0.495304,0.254002 -1.358911,0.254002 -0.927107,0 -1.536712,-0.533404 -0.609605,-0.546104 -0.609605,-1.663713 0,-1.104909 0.774707,-1.625613 0.774706,-0.533404 2.324118,-0.584204 l 1.206509,-0.0381 v -0.304802 q 0,-0.546104 -0.292102,-0.800106 -0.279402,-0.254002 -0.787406,-0.254002 -0.508004,0 -0.990608,0.152401 -0.482604,0.139701 -0.965208,0.355603 l -0.622304,-1.28271 q 0.558804,-0.292103 1.231909,-0.457204 0.685806,-0.165101 1.422411,-0.165101 z m 0.266703,3.88623 q -0.914408,0.0254 -1.27001,0.330203 -0.355603,0.304802 -0.355603,0.800106 0,0.431804 0.254002,0.622305 0.254002,0.177801 0.660405,0.177801 0.609605,0 1.028708,-0.355602 0.419103,-0.368303 0.419103,-1.028708 v -0.571505 z"
       id="path1077"
       style="stroke:#ffffff;stroke-width:0.479163;stroke-linecap:round;stroke-linejoin:round;stroke-dasharray:none;stroke-opacity:1" /><path
       d="m 92.285058,12.167945 q 1.18111,0 1.778014,0.609605 0.609605,0.596904 0.609605,1.930415 V 19.2292 h -1.892315 v -4.051332 q 0,-1.498611 -1.041408,-1.498611 -0.749306,0 -1.066808,0.533404 -0.317503,0.533404 -0.317503,1.536712 V 19.2292 h -1.892315 v -4.051332 q 0,-1.498611 -1.041408,-1.498611 -0.787406,0 -1.092208,0.596904 -0.292103,0.584205 -0.292103,1.689114 V 19.2292 h -1.892315 v -6.934254 h 1.447812 l 0.254002,0.889007 h 0.101601 q 0.317502,-0.533404 0.863606,-0.774706 0.558805,-0.241302 1.155709,-0.241302 0.762006,0 1.295411,0.254002 0.533404,0.241302 0.812806,0.762006 h 0.165101 q 0.317503,-0.533404 0.876307,-0.774706 0.571505,-0.241302 1.168409,-0.241302 z"
       id="path1079"
       style="stroke:#ffffff;stroke-width:0.479163;stroke-linecap:round;stroke-linejoin:round;stroke-dasharray:none;stroke-opacity:1" /></g><g
     style="fill:none"
     id="g414"
     transform="matrix(0.41261056,0,0,0.41261056,-0.00189918,0)"><path
       d="M 48,24 A 24,24 0 0 1 24,48 24,24 0 0 1 0,24 24,24 0 0 1 24,0 24,24 0 0 1 48,24 Z"
       style="fill:#3784ff;fill-opacity:1;stroke-width:0.910675"
       id="path2" /><g
       style="fill:#ffffff"
       id="g8"
       transform="matrix(0.90745381,0,-0.21755947,0.90745381,7.453123,2.221112)"><path
         id="path6"
         style="fill:#ffffff"
         transform="matrix(0.40398,0,0,0.51479,-20.7,-7.684)"
         d="m 109.405,82.4 c -9.333,6.296 -27.884,19.104 -27.884,19.104 l 19.355,-40 h 40 c 0,0 -21.023,13.849 -31.471,20.896 z m -2.521,-17.457 m 5.576,-24.248 c 9.332,-6.295 27.883,-19.104 27.883,-19.104 l -19.354,40 h -40 c 0,0 21.022,-13.848 31.47,-20.896 z m 2.52,17.457" /></g></g></svg>
